<?xml version="1.0" encoding="UTF-8"?>
<!DOCTYPE svg PUBLIC "-//W3C//DTD SVG 1.1//EN" "http://www.w3.org/Graphics/SVG/1.1/DTD/svg11.dtd">
<!-- Creator: CorelDRAW 2018 (64-Bit) -->
<svg xmlns="http://www.w3.org/2000/svg" xml:space="preserve" width="119.456mm" height="21.1074mm" version="1.1" shape-rendering="geometricPrecision" text-rendering="geometricPrecision" image-rendering="optimizeQuality" fill-rule="evenodd" clip-rule="evenodd"
viewBox="0 0 9332.02 1648.93"
 xmlns:xlink="http://www.w3.org/1999/xlink">
 <g id="Слой_x0020_1">
  <metadata id="CorelCorpID_0Corel-Layer"/>
  <path fill="#FF3030" fill-rule="nonzero" d="M29.76 1339.38l0 150.8 543.69 0 0 -150.8 -21.83 0c-83.34,0 -129.64,-29.1 -138.9,-87.31 -3.97,-19.84 -5.95,-51.59 -5.95,-95.24l0 -700.45 317.48 1033.8 117.07 0 307.56 -1027.85 0 694.49c0,70.11 -9.59,118.06 -28.77,143.86 -19.18,25.8 -56.55,38.69 -112.11,38.69l-25.8 0 0 150.8 652.82 0 0 -150.8 -23.81 0c-51.59,0 -89.96,-6.62 -115.09,-19.84 -33.07,-25.13 -49.61,-59.53 -49.61,-103.18l0 -821.49c0,-71.43 10.59,-119.72 31.75,-144.85 21.16,-25.13 63.5,-37.7 126.99,-37.7l29.76 0 0 -152.79 -545.67 0 -253.99 837.36 -250.02 -837.36 -555.6 0 0 152.79c72.75,0 119.72,6.62 140.88,19.84 33.07,21.16 49.61,54.9 49.61,101.2l0 823.47c0,71.43 -10.25,119.72 -30.76,144.85 -20.51,25.13 -63.17,37.7 -127.99,37.7l-31.75 0zm-29.76 180.57l0 -210.33 61.51 0c50.27,0 84.33,-10.25 102.19,-30.76 17.86,-20.51 26.79,-61.18 26.79,-122.03l0 -813.55 -91.28 -1.98 0 -97.23 -39.69 -1.98 -59.53 0 0 -212.32 607.19 0 29.76 99.21 69.45 0 164.69 551.63 196.44 -650.84 597.27 0 0 99.21 99.21 0 0 212.32 -59.53 0c-51.59,0 -85.99,10.59 -103.18,31.75 -17.19,21.16 -25.8,61.51 -25.8,121.04l0 815.54 89.29 0 0 99.21 99.21 0 0 210.33 -712.35 0 0 -99.21 -59.53 0 -29.76 99.21 -160.73 0 -31.75 -99.21 -67.47 0 0 99.21 -603.22 0 0 -99.21 -99.21 0zm603.22 -210.33l0 99.21 65.48 0 -132.95 -432.57 0 333.36 67.47 0zm452.41 -3.97c42.33,-11.91 63.5,-61.51 63.5,-148.82l0 -61.51 -63.5 210.33z"/>
  <path id="1" fill="#FF3030" fill-rule="nonzero" d="M1728.3 1339.38l0 150.8 680.6 0 0 -150.8 -27.78 0c-66.14,0 -109.8,-11.91 -130.96,-35.72 -21.16,-23.81 -31.75,-72.75 -31.75,-146.84l0 -777.83c0,-67.47 10.25,-112.44 30.76,-134.93 20.51,-22.49 63.17,-33.73 127.99,-33.73l31.75 0 0 -150.8 -680.6 0 0 150.8 29.76 0c51.59,0 88.63,6.62 111.12,19.84 33.07,25.13 49.61,59.53 49.61,103.18l0 823.47c0,71.43 -10.25,119.72 -30.76,144.85 -20.51,25.13 -63.17,37.7 -127.99,37.7l-31.75 0zm-29.76 180.57l0 -210.33 61.51 0c50.27,0 84.33,-10.25 102.19,-30.76 17.86,-20.51 26.79,-61.18 26.79,-122.03l0 -817.52 -91.28 0 0 -97.23 -39.69 -1.98 -59.53 0 0 -210.33 740.13 0 0 99.21 99.21 0 0 210.33 -61.51 0c-51.59,0 -85.99,9.59 -103.18,28.77 -17.19,19.18 -25.8,55.89 -25.8,110.13l0 777.83 1.98 53.58 89.29 0 0 97.23 41.67 1.98 57.54 0 0 210.33 -740.13 0 0 -99.21 -99.21 0z"/>
  <path id="2" fill="#FF3030" fill-rule="nonzero" d="M2688.69 996.1l-158.74 73.42 146.84 430.59 142.87 0c6.62,-35.72 18.52,-53.58 35.72,-53.58l29.76 11.91c39.69,18.52 78.05,32.41 115.09,41.67 37.04,9.26 78.71,13.89 125.01,13.89 125.67,0 228.86,-41.01 309.55,-123.02 80.69,-82.02 121.04,-184.54 121.04,-307.56 0,-124.35 -42.33,-224.89 -126.99,-301.61 -59.53,-51.59 -156.09,-104.5 -289.7,-158.74 -116.41,-43.65 -186.52,-78.71 -210.33,-105.17 -41.01,-33.07 -61.51,-75.4 -61.51,-126.99 0,-44.97 15.21,-81.03 45.64,-108.14 30.43,-27.12 69.45,-40.68 117.07,-40.68 70.11,0 134.27,33.07 192.47,99.21 23.81,26.46 52.91,73.42 87.31,140.88l156.76 -79.37 -128.98 -365.11 -130.96 0c-3.97,38.37 -16.54,57.54 -37.7,57.54 -6.62,0 -17.86,-3.97 -33.73,-11.91 -62.18,-35.72 -126.99,-53.58 -194.46,-53.58 -103.18,0 -190.16,38.03 -260.93,114.1 -70.77,76.07 -106.16,168.99 -106.16,278.79 0,107.15 35.05,199.75 105.17,277.8 60.85,66.14 160.06,126.33 297.64,180.57 55.56,21.16 101.2,39.69 136.91,55.56 35.72,15.87 62.18,30.43 79.37,43.65 50.27,35.72 75.4,82.68 75.4,140.88 0,51.59 -20.51,95.91 -61.51,132.95 -41.01,34.4 -91.28,51.59 -150.8,51.59 -96.57,0 -183.22,-44.32 -259.94,-132.95 -29.1,-35.72 -64.82,-94.58 -107.15,-176.6zm-196.44 57.54l208.35 -97.23 61.51 117.07 37.7 -17.86c38.37,76.72 70.11,132.95 95.24,168.66 50.27,34.4 103.85,51.59 160.73,51.59 51.59,0 94.92,-14.22 129.97,-42.66 35.05,-28.44 52.58,-65.81 52.58,-112.11 0,-17.19 -2.65,-31.75 -7.94,-43.65 -23.81,-13.23 -78.71,-36.38 -164.69,-69.45 -153.45,-58.21 -265.23,-130.96 -335.34,-218.27 -124.35,-96.57 -186.52,-218.93 -186.52,-367.09 0,-117.74 37.7,-217.61 113.1,-299.62 75.4,-82.02 169.98,-123.02 283.75,-123.02 67.47,0 136.91,19.84 208.35,59.53l19.84 5.95 9.92 -57.54 178.58 0 33.73 99.21 65.48 0 144.85 408.76 -206.36 105.17 -63.5 -117.07 -35.72 17.86 -65.48 -121.04c-31.75,-19.84 -65.48,-29.76 -101.2,-29.76 -39.69,0 -71.76,11.24 -96.24,33.73 -24.48,22.49 -36.71,50.93 -36.71,85.32 0,17.19 2.65,31.75 7.94,43.65l144.85 61.51c144.19,55.56 244.07,110.46 299.62,164.69 23.81,21.16 43.65,42.99 59.53,65.48l39.69 33.73c91.28,79.37 136.91,187.19 136.91,323.44 0,132.28 -43.33,242.08 -129.97,329.39 -86.64,87.31 -196.77,130.96 -330.38,130.96 -87.31,0 -171.97,-19.84 -253.99,-59.53l-15.87 -7.94 -9.92 53.58 -190.49 0 -33.73 -99.21 -65.48 0 -162.71 -476.22z"/>
  <path id="3" fill="#FF3030" fill-rule="nonzero" d="M3863.37 996.1l-158.74 73.42 146.84 430.59 142.87 0c6.62,-35.72 18.52,-53.58 35.72,-53.58l29.76 11.91c39.69,18.52 78.05,32.41 115.09,41.67 37.04,9.26 78.71,13.89 125.01,13.89 125.67,0 228.86,-41.01 309.55,-123.02 80.69,-82.02 121.04,-184.54 121.04,-307.56 0,-124.35 -42.33,-224.89 -126.99,-301.61 -59.53,-51.59 -156.09,-104.5 -289.7,-158.74 -116.41,-43.65 -186.52,-78.71 -210.33,-105.17 -41.01,-33.07 -61.51,-75.4 -61.51,-126.99 0,-44.97 15.21,-81.03 45.64,-108.14 30.43,-27.12 69.45,-40.68 117.07,-40.68 70.11,0 134.27,33.07 192.47,99.21 23.81,26.46 52.91,73.42 87.31,140.88l156.76 -79.37 -128.98 -365.11 -130.96 0c-3.97,38.37 -16.54,57.54 -37.7,57.54 -6.62,0 -17.86,-3.97 -33.73,-11.91 -62.18,-35.72 -126.99,-53.58 -194.46,-53.58 -103.18,0 -190.16,38.03 -260.93,114.1 -70.77,76.07 -106.16,168.99 -106.16,278.79 0,107.15 35.05,199.75 105.17,277.8 60.85,66.14 160.06,126.33 297.64,180.57 55.56,21.16 101.2,39.69 136.91,55.56 35.72,15.87 62.18,30.43 79.37,43.65 50.27,35.72 75.4,82.68 75.4,140.88 0,51.59 -20.51,95.91 -61.51,132.95 -41.01,34.4 -91.28,51.59 -150.8,51.59 -96.57,0 -183.22,-44.32 -259.94,-132.95 -29.1,-35.72 -64.82,-94.58 -107.15,-176.6zm-196.44 57.54l208.35 -97.23 61.51 117.07 37.7 -17.86c38.37,76.72 70.11,132.95 95.24,168.66 50.27,34.4 103.85,51.59 160.73,51.59 51.59,0 94.92,-14.22 129.97,-42.66 35.05,-28.44 52.58,-65.81 52.58,-112.11 0,-17.19 -2.65,-31.75 -7.94,-43.65 -23.81,-13.23 -78.71,-36.38 -164.69,-69.45 -153.45,-58.21 -265.23,-130.96 -335.34,-218.27 -124.35,-96.57 -186.52,-218.93 -186.52,-367.09 0,-117.74 37.7,-217.61 113.1,-299.62 75.4,-82.02 169.98,-123.02 283.75,-123.02 67.47,0 136.91,19.84 208.35,59.53l19.84 5.95 9.92 -57.54 178.58 0 33.73 99.21 65.48 0 144.85 408.76 -206.36 105.17 -63.5 -117.07 -35.72 17.86 -65.48 -121.04c-31.75,-19.84 -65.48,-29.76 -101.2,-29.76 -39.69,0 -71.76,11.24 -96.24,33.73 -24.48,22.49 -36.71,50.93 -36.71,85.32 0,17.19 2.65,31.75 7.94,43.65l144.85 61.51c144.19,55.56 244.07,110.46 299.62,164.69 23.81,21.16 43.65,42.99 59.53,65.48l39.69 33.73c91.28,79.37 136.91,187.19 136.91,323.44 0,132.28 -43.33,242.08 -129.97,329.39 -86.64,87.31 -196.77,130.96 -330.38,130.96 -87.31,0 -171.97,-19.84 -253.99,-59.53l-15.87 -7.94 -9.92 53.58 -190.49 0 -33.73 -99.21 -65.48 0 -162.71 -476.22z"/>
  <path id="4" fill="#FF3030" fill-rule="nonzero" d="M4891.23 855.22l0 275.81 521.86 0 0 -275.81 -521.86 0zm-29.76 305.58l0 -335.34 581.39 0 0 99.21 99.21 0 0 335.34 -581.39 0 0 -99.21 -99.21 0z"/>
  <path id="5" fill="#FF3030" fill-rule="nonzero" d="M5296.02 59.53l0 150.8c59.53,0 101.86,10.25 126.99,30.76 25.13,20.51 57.54,67.79 97.23,141.88l287.72 547.66 0 226.21c0,71.43 -11.91,119.72 -35.72,144.85 -23.81,25.13 -71.43,37.7 -142.87,37.7l-33.73 0 0 150.8 724.26 0 0 -152.79 -27.78 1.98c-18.52,0 -38.69,-0.33 -60.52,-0.99 -21.83,-0.66 -44.65,-6.94 -68.46,-18.85 -37.04,-18.52 -55.56,-52.91 -55.56,-103.18l0 -287.72 307.56 -531.78c38.37,-66.14 71.76,-111.78 100.21,-136.91 28.44,-25.13 71.76,-41.67 129.97,-49.61l0 -150.8 -575.44 0 0 150.8 89.29 7.94c46.3,7.94 69.45,33.73 69.45,77.39 0,21.16 -13.89,58.86 -41.67,113.1l-166.68 315.5 -172.63 -363.12c-11.91,-22.49 -17.86,-43.65 -17.86,-63.5 0,-58.21 49.61,-87.31 148.82,-87.31l0 -150.8 -682.59 0zm69.45 277.8l0 -89.29 -99.21 -9.92 0 -208.35 742.12 0 0 99.21 31.75 0 0 -99.21 634.97 0 0 99.21 99.21 0 0 206.36c-68.79,7.94 -115.42,22.82 -139.89,44.65 -24.48,21.83 -55.89,65.81 -94.25,131.95l-303.59 525.83 0 273.83 17.86 0 33.73 -1.98 61.51 -3.97 0 105.17 37.7 -1.98 61.51 -3.97 0 214.3 -783.79 0 0 -99.21 -99.21 0 0 -210.33 63.5 0c59.53,0 99.21,-9.92 119.06,-29.76 19.84,-19.84 29.76,-60.85 29.76,-123.02l0 -220.25 -283.75 -539.72 -25.8 -47.62c-13.23,-2.65 -28.44,-5.29 -45.64,-7.94 -17.19,-2.65 -36.38,-3.97 -57.54,-3.97zm773.87 -91.28l-29.76 -3.97 -1.98 95.24c-99.21,0 -148.82,19.84 -148.82,59.53 0,14.55 4.63,31.08 13.89,49.61l27.78 55.56 49.61 105.17 111.12 -212.32 27.78 -53.58 -49.61 -3.97 0 -91.28z"/>
  <path id="6" fill="#FF3030" fill-rule="nonzero" d="M7208.85 222.24c92.6,0 155.44,74.74 188.51,224.22 15.87,75.4 23.81,185.2 23.81,329.39 0,369.07 -70.77,553.61 -212.32,553.61 -142.87,0 -214.3,-184.54 -214.3,-553.61 0,-369.07 71.43,-553.61 214.3,-553.61zm-555.6 553.61c0,234.14 49.28,416.7 147.83,547.66 98.55,130.96 234.47,196.44 407.77,196.44 171.97,0 307.23,-65.81 405.78,-197.43 98.55,-131.63 147.83,-313.84 147.83,-546.67 0,-234.14 -48.94,-417.02 -146.84,-548.65 -97.89,-131.63 -233.48,-197.43 -406.78,-197.43 -171.97,0 -307.56,66.14 -406.78,198.43 -99.21,132.28 -148.82,314.83 -148.82,547.66zm-29.76 0c0,-240.76 51.59,-430.26 154.77,-568.49 103.18,-138.23 246.71,-207.36 430.59,-207.36 177.26,0 318.8,67.47 424.63,202.4 171.97,132.28 257.96,356.5 257.96,672.67 0,242.08 -52.26,431.58 -156.76,568.49 -104.5,136.91 -246.71,205.37 -426.62,205.37 -179.9,0 -322.77,-67.47 -428.6,-202.4 -170.65,-130.96 -255.97,-354.52 -255.97,-670.68zm684.57 -424.63c-123.02,0 -184.54,174.62 -184.54,523.85 0,193.14 17.86,333.36 53.58,420.67l31.75 3.97c121.7,0 182.55,-174.62 182.55,-523.85 0,-186.52 -18.52,-326.74 -55.56,-420.67l-27.78 -3.97z"/>
  <path id="7" fill="#FF3030" fill-rule="nonzero" d="M7895.41 59.53l0 150.8 25.8 0c48.94,0 84,6.62 105.17,19.84 29.1,21.16 43.65,54.9 43.65,101.2l0 738.15c0,89.96 6.94,156.09 20.83,198.43 13.89,42.33 40.68,81.36 80.36,117.07 91.28,80.69 220.25,121.04 386.93,121.04 153.45,0 269.86,-36.71 349.23,-110.13 79.37,-73.42 119.06,-182.88 119.06,-328.4l0 -676.64c0,-71.43 10.25,-119.38 30.76,-143.86 20.51,-24.48 58.54,-36.71 114.1,-36.71l31.75 0 0 -150.8 -539.72 0 0 152.79 19.84 -1.98c47.62,0 84,6.62 109.13,19.84 29.1,21.16 43.65,55.56 43.65,103.18l0 708.38c0,97.89 -13.23,164.03 -39.69,198.43 -38.37,50.27 -100.53,75.4 -186.52,75.4 -85.99,0 -150.8,-24.48 -194.46,-73.42 -29.1,-35.72 -43.65,-101.86 -43.65,-198.43l0 -648.86c0,-70.11 10.25,-118.06 30.76,-143.86 20.51,-25.8 59.86,-38.69 118.06,-38.69l25.8 0 0 -152.79 -650.84 0zm69.45 279.78l0 -97.23 -43.65 -1.98 -55.56 0 0 -210.33 710.37 0 0 99.21 57.54 0 0 -99.21 599.25 0 0 99.21 99.21 0 0 210.33 -61.51 0c-43.65,0 -73.75,10.25 -90.28,30.76 -16.54,20.51 -24.8,60.52 -24.8,120.05l0 676.64c0,153.45 -42.33,269.86 -126.99,349.23 -84.66,79.37 -208.35,119.06 -371.06,119.06 -175.94,0 -311.53,-42.99 -406.78,-128.98 -25.13,-22.49 -44.97,-44.32 -59.53,-65.48l-39.69 -33.73c-41.01,-37.04 -69.78,-79.7 -86.32,-127.99 -16.54,-48.29 -24.8,-118.06 -24.8,-209.34l0 -730.21 -75.4 0zm720.29 -99.21l-9.92 1.98 0 99.21 -55.56 0c-47.62,0 -79.37,10.25 -95.24,30.76 -15.87,20.51 -23.81,61.18 -23.81,122.03l0 648.86c0,25.13 0.33,47.62 0.99,67.47 0.66,19.84 2.98,39.69 6.94,59.53 27.78,10.59 61.51,15.87 101.2,15.87 75.4,0 129.64,-21.16 162.71,-63.5 22.49,-29.1 33.73,-89.29 33.73,-180.57l0 -702.43 -21.83 0 -51.59 5.95 0 -103.18 -21.83 -1.98 -25.8 0z"/>
 </g>
</svg>
